<mxfile host="app.diagrams.net" agent="Mozilla/5.0 (X11; Linux x86_64; rv:144.0) Gecko/20100101 Firefox/144.0" version="28.2.8">
  <diagram name="Page-1" id="ZLazSinGCe12IRev065t">
    <mxGraphModel dx="648" dy="364" grid="1" gridSize="10" guides="1" tooltips="1" connect="1" arrows="1" fold="1" page="1" pageScale="1" pageWidth="827" pageHeight="1169" math="0" shadow="0">
      <root>
        <mxCell id="0" />
        <mxCell id="1" parent="0" />
        <mxCell id="hvuJh-BMv-LOj-h4zj-f-3" value="" style="edgeStyle=orthogonalEdgeStyle;rounded=0;orthogonalLoop=1;jettySize=auto;html=1;" edge="1" parent="1" source="hvuJh-BMv-LOj-h4zj-f-1" target="hvuJh-BMv-LOj-h4zj-f-2">
          <mxGeometry relative="1" as="geometry" />
        </mxCell>
        <mxCell id="hvuJh-BMv-LOj-h4zj-f-4" value="Lignes d&#39;excitation" style="edgeLabel;html=1;align=center;verticalAlign=middle;resizable=0;points=[];whiteSpace=wrap;" vertex="1" connectable="0" parent="hvuJh-BMv-LOj-h4zj-f-3">
          <mxGeometry x="0.05" y="-1" relative="1" as="geometry">
            <mxPoint x="-2" y="19" as="offset" />
          </mxGeometry>
        </mxCell>
        <mxCell id="hvuJh-BMv-LOj-h4zj-f-1" value="Logique combinatoire" style="rounded=0;whiteSpace=wrap;html=1;" vertex="1" parent="1">
          <mxGeometry x="160" y="80" width="80" height="120" as="geometry" />
        </mxCell>
        <mxCell id="hvuJh-BMv-LOj-h4zj-f-5" style="edgeStyle=orthogonalEdgeStyle;rounded=0;orthogonalLoop=1;jettySize=auto;html=1;exitX=0.5;exitY=1;exitDx=0;exitDy=0;entryX=0.5;entryY=1;entryDx=0;entryDy=0;" edge="1" parent="1" source="hvuJh-BMv-LOj-h4zj-f-2" target="hvuJh-BMv-LOj-h4zj-f-1">
          <mxGeometry relative="1" as="geometry" />
        </mxCell>
        <mxCell id="hvuJh-BMv-LOj-h4zj-f-6" value="Lignes variables d&#39;état" style="edgeLabel;html=1;align=center;verticalAlign=middle;resizable=0;points=[];" vertex="1" connectable="0" parent="hvuJh-BMv-LOj-h4zj-f-5">
          <mxGeometry x="-0.104" y="1" relative="1" as="geometry">
            <mxPoint x="-10" y="9" as="offset" />
          </mxGeometry>
        </mxCell>
        <mxCell id="hvuJh-BMv-LOj-h4zj-f-2" value="Mémoire" style="rounded=0;whiteSpace=wrap;html=1;" vertex="1" parent="1">
          <mxGeometry x="320" y="80" width="80" height="120" as="geometry" />
        </mxCell>
        <mxCell id="hvuJh-BMv-LOj-h4zj-f-8" value="" style="edgeStyle=none;orthogonalLoop=1;jettySize=auto;html=1;rounded=0;entryX=0;entryY=0.5;entryDx=0;entryDy=0;" edge="1" parent="1" target="hvuJh-BMv-LOj-h4zj-f-1">
          <mxGeometry width="80" relative="1" as="geometry">
            <mxPoint x="120" y="140" as="sourcePoint" />
            <mxPoint x="190" y="170" as="targetPoint" />
            <Array as="points" />
          </mxGeometry>
        </mxCell>
        <mxCell id="hvuJh-BMv-LOj-h4zj-f-11" value="Entrées" style="edgeLabel;html=1;align=center;verticalAlign=middle;resizable=0;points=[];spacingRight=6;spacing=0;spacingTop=-2;" vertex="1" connectable="0" parent="hvuJh-BMv-LOj-h4zj-f-8">
          <mxGeometry x="0.0762" y="2" relative="1" as="geometry">
            <mxPoint x="-41" y="2" as="offset" />
          </mxGeometry>
        </mxCell>
        <mxCell id="hvuJh-BMv-LOj-h4zj-f-9" value="" style="edgeStyle=none;orthogonalLoop=1;jettySize=auto;html=1;rounded=0;entryX=0;entryY=0.5;entryDx=0;entryDy=0;" edge="1" parent="1">
          <mxGeometry width="80" relative="1" as="geometry">
            <mxPoint x="400" y="139.76" as="sourcePoint" />
            <mxPoint x="440" y="139.76" as="targetPoint" />
            <Array as="points" />
          </mxGeometry>
        </mxCell>
        <mxCell id="hvuJh-BMv-LOj-h4zj-f-10" value="Sorties" style="edgeLabel;html=1;align=center;verticalAlign=middle;resizable=0;points=[];spacingTop=-2;" vertex="1" connectable="0" parent="hvuJh-BMv-LOj-h4zj-f-9">
          <mxGeometry x="-0.1857" y="-1" relative="1" as="geometry">
            <mxPoint x="44" y="-1" as="offset" />
          </mxGeometry>
        </mxCell>
      </root>
    </mxGraphModel>
  </diagram>
</mxfile>
